<?xml version="1.0" encoding="UTF-8"?>
<svg id="Layer_2" data-name="Layer 2" xmlns="http://www.w3.org/2000/svg" viewBox="0 0 63 63">
  <defs>
    <style>
      .cls-1, .cls-2, .cls-3 {
        fill: none;
      }

      .cls-4 {
        fill: #fff;
        stroke-miterlimit: 4;
        stroke-width: 2px;
      }

      .cls-4, .cls-2 {
        stroke: #000;
      }

      .cls-2 {
        stroke-width: 1.5px;
      }

      .cls-5 {
        fill: #ee3a26;
      }

      .cls-6 {
        fill: #fac7c3;
      }

      .cls-3 {
        stroke: #ee3a26;
        stroke-width: 3px;
      }
    </style>
  </defs>
  <g id="Layer_2-2" data-name="Layer 2">
    <g>
      <g>
        <rect x="6" y="6" width="57" height="57"/>
        <rect class="cls-6" x="1.5" y="1.5" width="57" height="57"/>
        <rect class="cls-3" x="1.5" y="1.5" width="57" height="57"/>
        <rect class="cls-4" x="11.35" y="11.39" width="36.7" height="36.7" transform="translate(-8.22 11.62) rotate(-19.5)"/>
        <line class="cls-2" x1="5.41" y1="34.06" x2="14.89" y2="30.79"/>
        <line class="cls-2" x1="6.59" y1="38.75" x2="16.06" y2="35.48"/>
        <line class="cls-2" x1="39.42" y1="14.12" x2="48.89" y2="10.86"/>
        <line class="cls-2" x1="40.59" y1="18.81" x2="50.07" y2="15.55"/>
        <line class="cls-2" x1="45.28" y1="31.71" x2="54.76" y2="28.45"/>
        <line class="cls-2" x1="18.09" y1="8.96" x2="21.6" y2="18.34"/>
        <path class="cls-2" d="M43.18,38.54l3.52,9.38"/>
        <line class="cls-2" x1="25.12" y1="6.61" x2="28.64" y2="15.99"/>
        <line class="cls-2" x1="25.12" y1="45.31" x2="28.64" y2="54.69"/>
        <line class="cls-2" x1="30.98" y1="42.96" x2="34.5" y2="52.35"/>
        <path class="cls-5" d="M36.27,20.71c-.66-.32-1.38-.5-2.11-.54-.73-.04-1.46.07-2.15.32-.69.25-1.32.63-1.85,1.13-.54.5-.97,1.1-1.28,1.77l-.64,1.39-1.38-.66c-1.34-.65-2.87-.73-4.26-.23-1.39.5-2.51,1.54-3.13,2.89-.62,1.35-.68,2.9-.17,4.32.51,1.41,1.55,2.57,2.89,3.22l11.48,5.54,5.32-11.58c.31-.67.48-1.4.51-2.14.03-.74-.08-1.48-.34-2.18-.25-.7-.64-1.34-1.13-1.89-.5-.55-1.09-1-1.76-1.32Z"/>
      </g>
      <rect class="cls-1" x="0" y="0" width="63" height="63"/>
    </g>
  </g>
</svg>